<svg width="178" height="40" viewBox="0 0 178 40" fill="none" xmlns="http://www.w3.org/2000/svg">
<rect width="178.003" height="40.0002" rx="10" fill="white"/>
<rect x="0.5" y="0.5" width="177.003" height="39.0002" rx="9.5" stroke="black" stroke-opacity="0.25"/>
<rect x="6" y="6" width="28.003" height="28.0002" rx="6" fill="#048766"/>
<path d="M12.0002 16.6862V22.3439C13.5005 22.3439 14.9393 22.9397 16.0002 24.0004C17.0612 25.061 17.6575 26.4997 17.6579 27.9999H23.3156C23.3151 24.9992 22.1228 22.1215 20.0008 19.9998C17.8788 17.8781 15.001 16.6862 12.0002 16.6862H12.0002Z" fill="white"/>
<path d="M28.0029 23.3156V17.658C26.5027 17.6575 25.064 17.0613 24.0034 16.0003C22.9427 14.9393 22.3469 13.5005 22.3469 12.0003H16.6892C16.6892 15.001 17.8811 17.8789 20.0028 20.0009C22.1245 22.1229 25.0021 23.3152 28.0029 23.3156Z" fill="white"/>
<path d="M47.134 16.2001C47.806 16.2001 48.394 16.3401 48.912 16.5921C49.416 16.8441 49.822 17.2081 50.102 17.6841C50.382 18.1601 50.522 18.7061 50.522 19.3221C50.522 19.9521 50.382 20.4981 50.102 20.9741C49.822 21.4501 49.416 21.8141 48.912 22.0661C48.394 22.3181 47.806 22.4441 47.134 22.4441H44.88V26.0001H43.27V16.2001H47.134ZM44.88 21.0441H46.994C47.568 21.0441 48.03 20.8901 48.366 20.5821C48.702 20.2741 48.884 19.8541 48.884 19.3221C48.884 18.7901 48.716 18.3701 48.38 18.0621C48.044 17.7541 47.582 17.6001 47.008 17.6001H44.88V21.0441ZM52.7345 25.6361C52.1745 25.3281 51.7545 24.9081 51.4465 24.3481C51.1385 23.7881 50.9985 23.1441 50.9985 22.4161C50.9985 21.7021 51.1385 21.0721 51.4465 20.5121C51.7545 19.9521 52.1745 19.5181 52.7345 19.2101C53.2945 18.9021 53.9245 18.7481 54.6525 18.7481C55.3665 18.7481 55.9965 18.9021 56.5565 19.2101C57.1165 19.5181 57.5365 19.9521 57.8445 20.5121C58.1525 21.0721 58.3065 21.7021 58.3065 22.4161C58.3065 23.1441 58.1525 23.7881 57.8445 24.3481C57.5365 24.9081 57.1165 25.3281 56.5565 25.6361C55.9965 25.9441 55.3665 26.0841 54.6525 26.0841C53.9245 26.0841 53.2945 25.9441 52.7345 25.6361ZM56.1785 24.1381C56.5705 23.6901 56.7665 23.1161 56.7665 22.4161C56.7665 21.7161 56.5705 21.1561 56.1785 20.7081C55.7865 20.2601 55.2825 20.0361 54.6525 20.0361C54.0085 20.0361 53.5045 20.2601 53.1265 20.7081C52.7345 21.1561 52.5525 21.7161 52.5525 22.4161C52.5525 23.1161 52.7345 23.6901 53.1265 24.1381C53.5045 24.5861 54.0085 24.7961 54.6525 24.7961C55.2825 24.7961 55.7865 24.5861 56.1785 24.1381ZM58.6312 18.8321H60.2272L61.8652 24.3201L63.5032 18.8321H64.8892L66.4572 24.3201L68.1512 18.8321H69.6912L67.3112 26.0001H65.6872L64.1752 21.1281L62.6072 26.0001L60.9692 26.0141L58.6312 18.8321ZM70.45 20.4981C70.744 19.9381 71.15 19.5181 71.682 19.2101C72.214 18.9021 72.816 18.7481 73.502 18.7481C74.188 18.7481 74.79 18.8881 75.322 19.1681C75.854 19.4481 76.26 19.8541 76.568 20.3581C76.876 20.8761 77.03 21.4781 77.044 22.1641C77.044 22.3601 77.03 22.5421 77.002 22.7381H71.598V22.8221C71.626 23.4521 71.822 23.9421 72.186 24.3061C72.536 24.6701 73.012 24.8521 73.6 24.8521C74.062 24.8521 74.454 24.7541 74.776 24.5301C75.084 24.3061 75.294 23.9981 75.406 23.5921H76.918C76.778 24.3201 76.428 24.9221 75.854 25.3841C75.28 25.8601 74.566 26.0841 73.712 26.0841C72.956 26.0841 72.312 25.9441 71.752 25.6361C71.192 25.3281 70.772 24.9081 70.464 24.3481C70.156 23.8021 70.016 23.1581 70.016 22.4301C70.016 21.7021 70.156 21.0581 70.45 20.4981ZM75.504 21.6321C75.434 21.1141 75.224 20.7081 74.874 20.4141C74.524 20.1201 74.09 19.9661 73.558 19.9661C73.054 19.9661 72.634 20.1201 72.27 20.4281C71.906 20.7361 71.71 21.1281 71.654 21.6321H75.504ZM82.2284 18.8321V20.2461H81.5564C80.9264 20.2461 80.4784 20.4561 80.1984 20.8621C79.9184 21.2681 79.7784 21.7861 79.7784 22.4021V26.0001H78.2664V18.8321H79.6104L79.7784 19.9101C79.9744 19.5741 80.2404 19.3221 80.5764 19.1261C80.8984 18.9301 81.3324 18.8321 81.8924 18.8321H82.2284ZM83.0145 20.4981C83.3085 19.9381 83.7145 19.5181 84.2465 19.2101C84.7785 18.9021 85.3805 18.7481 86.0665 18.7481C86.7525 18.7481 87.3545 18.8881 87.8865 19.1681C88.4185 19.4481 88.8245 19.8541 89.1325 20.3581C89.4405 20.8761 89.5945 21.4781 89.6085 22.1641C89.6085 22.3601 89.5945 22.5421 89.5665 22.7381H84.1625V22.8221C84.1905 23.4521 84.3865 23.9421 84.7505 24.3061C85.1005 24.6701 85.5765 24.8521 86.1645 24.8521C86.6265 24.8521 87.0185 24.7541 87.3405 24.5301C87.6485 24.3061 87.8585 23.9981 87.9705 23.5921H89.4825C89.3425 24.3201 88.9925 24.9221 88.4185 25.3841C87.8445 25.8601 87.1305 26.0841 86.2765 26.0841C85.5205 26.0841 84.8765 25.9441 84.3165 25.6361C83.7565 25.3281 83.3365 24.9081 83.0285 24.3481C82.7205 23.8021 82.5805 23.1581 82.5805 22.4301C82.5805 21.7021 82.7205 21.0581 83.0145 20.4981ZM88.0685 21.6321C87.9985 21.1141 87.7885 20.7081 87.4385 20.4141C87.0885 20.1201 86.6545 19.9661 86.1225 19.9661C85.6185 19.9661 85.1985 20.1201 84.8345 20.4281C84.4705 20.7361 84.2745 21.1281 84.2185 21.6321H88.0685ZM97.7889 16.2001V26.0001H96.4729L96.2909 24.9221C95.7169 25.7061 94.9329 26.0841 93.9529 26.0841C93.2949 26.0841 92.7069 25.9441 92.2029 25.6501C91.6849 25.3561 91.2789 24.9361 90.9989 24.3761C90.7049 23.8161 90.5649 23.1721 90.5649 22.4161C90.5649 21.6881 90.7049 21.0581 90.9989 20.4981C91.2929 19.9381 91.6989 19.5181 92.2169 19.2101C92.7209 18.9021 93.3089 18.7481 93.9529 18.7481C94.4709 18.7481 94.9329 18.8461 95.3249 19.0421C95.7169 19.2381 96.0249 19.4901 96.2769 19.8261V16.2001H97.7889ZM95.7169 24.1521C96.0949 23.7181 96.2909 23.1441 96.2909 22.4441C96.2909 21.7301 96.0949 21.1561 95.7169 20.7081C95.3249 20.2601 94.8209 20.0361 94.2049 20.0361C93.5749 20.0361 93.0709 20.2601 92.6929 20.7081C92.3009 21.1561 92.1189 21.7161 92.1189 22.4161C92.1189 23.1301 92.3009 23.7041 92.6929 24.1521C93.0709 24.6001 93.5749 24.8101 94.2049 24.8101C94.8209 24.8101 95.3249 24.6001 95.7169 24.1521ZM108.434 19.1961C108.938 19.4901 109.344 19.9101 109.638 20.4561C109.918 21.0161 110.072 21.6601 110.072 22.4161C110.072 23.1441 109.918 23.7741 109.638 24.3341C109.344 24.8941 108.938 25.3141 108.434 25.6221C107.916 25.9301 107.328 26.0841 106.684 26.0841C106.152 26.0841 105.69 25.9861 105.298 25.7901C104.906 25.5941 104.584 25.3141 104.346 24.9641L104.164 26.0001H102.848V16.2001H104.36V19.8961C104.92 19.1401 105.704 18.7481 106.684 18.7481C107.328 18.7481 107.916 18.9021 108.434 19.1961ZM107.944 24.1521C108.336 23.7041 108.532 23.1301 108.532 22.4161C108.532 21.7161 108.336 21.1561 107.944 20.7081C107.552 20.2601 107.048 20.0361 106.432 20.0361C105.802 20.0361 105.298 20.2601 104.92 20.6941C104.528 21.1421 104.346 21.7021 104.346 22.4021C104.346 23.1161 104.528 23.6901 104.92 24.1381C105.298 24.5861 105.802 24.8101 106.432 24.8101C107.048 24.8101 107.552 24.6001 107.944 24.1521ZM111.907 18.8321L113.909 24.3621L115.855 18.8321H117.465L114.217 27.1201C114.049 27.5541 113.895 27.8901 113.755 28.1141C113.615 28.3381 113.433 28.5201 113.237 28.6321C113.027 28.7441 112.747 28.8001 112.411 28.8001H110.787V27.4701H111.851C112.131 27.4701 112.341 27.4281 112.453 27.3441C112.565 27.2601 112.677 27.0501 112.803 26.7421L113.097 26.0561L110.297 18.8321H111.907Z" fill="#535861"/>
<path d="M125.633 16.2001C126.767 16.2001 127.649 16.4241 128.279 16.8721C128.895 17.3201 129.217 17.9641 129.217 18.7761C129.217 19.3921 129.049 19.8821 128.713 20.2461C128.377 20.6241 127.901 20.8621 127.285 20.9741C128.013 21.0721 128.573 21.3101 128.965 21.6741C129.357 22.0521 129.567 22.5701 129.567 23.2421C129.567 24.1101 129.231 24.7821 128.587 25.2721C127.929 25.7621 127.005 26.0001 125.815 26.0001H121.909V16.2001H125.633ZM124.009 20.2321H125.689C126.137 20.2321 126.487 20.1341 126.739 19.9101C126.991 19.7001 127.117 19.4061 127.117 19.0421C127.117 18.6781 126.991 18.3981 126.739 18.1741C126.487 17.9641 126.137 17.8521 125.689 17.8521H124.009V20.2321ZM124.009 24.3341H125.829C126.333 24.3341 126.711 24.2361 126.991 24.0121C127.271 23.8021 127.411 23.5081 127.411 23.1161C127.411 22.7241 127.271 22.4161 126.991 22.1921C126.711 21.9681 126.319 21.8561 125.829 21.8561H124.009V24.3341ZM137.582 18.8041V26.0001H135.832L135.65 25.1321C135.398 25.4401 135.104 25.6641 134.768 25.8321C134.432 26.0001 134.012 26.0841 133.536 26.0841C132.696 26.0841 132.01 25.8321 131.478 25.3141C130.946 24.7961 130.68 23.9281 130.68 22.7101V18.8041H132.654V22.4721C132.654 23.1301 132.766 23.6201 132.99 23.9561C133.214 24.2921 133.578 24.4461 134.054 24.4461C134.544 24.4461 134.922 24.2641 135.202 23.9001C135.468 23.5361 135.608 23.0181 135.608 22.3461V18.8041H137.582ZM140.761 16.1301C140.971 16.3401 141.083 16.6061 141.083 16.9141C141.083 17.2361 140.971 17.5021 140.761 17.7121C140.537 17.9361 140.271 18.0341 139.949 18.0341C139.613 18.0341 139.347 17.9361 139.123 17.7121C138.899 17.5021 138.801 17.2361 138.801 16.9141C138.801 16.6061 138.899 16.3401 139.123 16.1301C139.347 15.9201 139.613 15.8081 139.949 15.8081C140.271 15.8081 140.537 15.9201 140.761 16.1301ZM138.955 18.8041H140.929V26.0001H138.955V18.8041ZM142.304 16.2001H144.278V26.0001H142.304V16.2001ZM152.85 16.2001V26.0001H151.128L150.932 25.0061C150.372 25.7341 149.63 26.0841 148.692 26.0841C148.048 26.0841 147.488 25.9441 146.984 25.6361C146.48 25.3281 146.074 24.8941 145.794 24.3341C145.514 23.7741 145.374 23.1301 145.374 22.3881C145.374 21.6601 145.514 21.0301 145.794 20.4701C146.074 19.9101 146.48 19.4901 146.984 19.1821C147.488 18.8741 148.062 18.7201 148.706 18.7201C149.63 18.7201 150.358 19.0561 150.876 19.7001V16.2001H152.85ZM150.428 23.9141C150.736 23.5361 150.904 23.0321 150.904 22.4161C150.904 21.8001 150.736 21.2961 150.428 20.9041C150.106 20.5261 149.686 20.3301 149.154 20.3301C148.622 20.3301 148.188 20.5261 147.866 20.9041C147.544 21.2961 147.39 21.7861 147.39 22.4021C147.39 23.0181 147.544 23.5221 147.866 23.9001C148.188 24.2921 148.622 24.4741 149.154 24.4741C149.686 24.4741 150.106 24.2921 150.428 23.9141ZM156.032 16.1301C156.242 16.3401 156.354 16.6061 156.354 16.9141C156.354 17.2361 156.242 17.5021 156.032 17.7121C155.808 17.9361 155.542 18.0341 155.22 18.0341C154.884 18.0341 154.618 17.9361 154.394 17.7121C154.17 17.5021 154.072 17.2361 154.072 16.9141C154.072 16.6061 154.17 16.3401 154.394 16.1301C154.618 15.9201 154.884 15.8081 155.22 15.8081C155.542 15.8081 155.808 15.9201 156.032 16.1301ZM154.226 18.8041H156.2V26.0001H154.226V18.8041ZM158.038 18.8041V18.1741C158.038 17.5441 158.22 17.0541 158.584 16.7181C158.948 16.3821 159.48 16.2001 160.208 16.2001H161.818V17.8801H160.6C160.39 17.8801 160.236 17.9361 160.152 18.0201C160.054 18.1181 160.012 18.2721 160.012 18.4681V18.8041H161.818V20.4701H160.012V26.0001H158.038V20.4701H156.848V18.8041H158.038ZM164.075 18.8041L165.825 23.9701L167.533 18.8041H169.647L166.455 27.0221C166.287 27.4701 166.119 27.8061 165.979 28.0581C165.825 28.3101 165.629 28.4921 165.405 28.6181C165.181 28.7441 164.887 28.8001 164.523 28.8001H162.605V27.1341H163.697C163.949 27.1341 164.131 27.0921 164.243 27.0081C164.355 26.9241 164.453 26.7701 164.565 26.5181L164.747 26.0421L161.975 18.8041H164.075Z" fill="#222834"/>
</svg>
