<svg width="683" height="491" viewBox="0 0 683 491" fill="none" xmlns="http://www.w3.org/2000/svg">
<path d="M613.603 1.69955C599.603 6.09955 599.069 6.49955 420.936 184.633L245.603 359.833L166.269 280.5C92.5359 207.033 86.2693 201.033 78.0026 197.166C56.8026 187.3 34.2692 190.366 17.4692 205.566C4.13591 217.566 -2.39742 236.766 0.80258 254.1C4.13591 271.966 2.00258 269.7 112.669 379.966C209.469 476.5 215.469 482.233 223.603 485.833C234.003 490.366 248.269 491.7 257.869 489.166C274.136 484.766 267.203 491.3 475.069 283.433C690.269 67.9662 678.003 81.1662 681.336 62.0996C685.869 35.5662 669.203 9.83289 642.403 1.69955C634.936 -0.567115 620.803 -0.567115 613.603 1.69955Z" fill="white"/>
</svg>
