<svg width="20" height="20" viewBox="0 0 20 20" fill="none" xmlns="http://www.w3.org/2000/svg">
<path d="M5.5502 15.0846H10.4942V14.1013H5.5502V15.0846ZM5.5502 11.6437H14.4497V10.6604H5.5502V11.6437ZM11.4833 0.3374H8.51674V1.32071H11.4833V0.3374ZM5.5502 8.20268H14.4497V7.21937H5.5502V8.20268ZM17.4156 0.3374H14.4497C14.4497 0.3374 12.9665 0.248886 12.9665 1.32071C12.9665 1.99579 12.55 2.23142 12.1583 2.30402H7.99259C7.56589 2.25116 7.03349 2.041 7.03349 1.32071C7.03349 0.114492 5.55022 0.3374 5.55022 0.3374H2.58432C2.03789 0.3374 1.59526 0.777474 1.59526 1.32071V19.0166C1.59526 19.5599 2.03789 20 2.58432 20H12.4716H13.4607H13.9549L18.4047 15.5757V15.0846V14.1013V1.32073C18.4047 0.777474 17.9621 0.3374 17.4156 0.3374ZM13.4607 19.0166V15.5757C13.4607 15.3044 13.6817 15.0846 13.9549 15.0846H17.4157L13.4607 19.0166ZM17.4156 14.1013H13.4607C12.9143 14.1013 12.4717 14.5414 12.4717 15.0847V19.0167H3.07855C2.80532 19.0167 2.58434 18.7969 2.58434 18.525V1.81239C2.58434 1.54108 2.80534 1.32073 3.07855 1.32073H5.44959C5.76231 1.42708 6.03869 1.69329 6.04506 2.30404C6.05588 3.37843 7.52833 3.28673 7.52833 3.28673H12.4717C12.4717 3.28673 13.9549 3.29119 13.9549 2.16137C13.9549 1.60157 14.3249 1.39078 14.695 1.32071H16.9214C17.1947 1.32071 17.4157 1.54106 17.4157 1.81237V14.1013H17.4156Z" fill="#555555"/>
</svg>
