<svg width="16" height="16" viewBox="0 0 16 16" fill="none" xmlns="http://www.w3.org/2000/svg">
<path d="M1.14014 7.5L15.1401 7.5C15.2727 7.5 15.3999 7.55268 15.4937 7.64645C15.5875 7.74021 15.6401 7.86739 15.6401 8C15.6401 8.13261 15.5875 8.25979 15.4937 8.35355C15.3999 8.44732 15.2727 8.5 15.1401 8.5L1.14014 8.5C1.00753 8.5 0.880351 8.44732 0.786583 8.35355C0.692815 8.25978 0.640137 8.13261 0.640137 8C0.640137 7.86739 0.692815 7.74021 0.786583 7.64645C0.880351 7.55268 1.00753 7.5 1.14014 7.5Z" fill="white"/>
<path d="M8.1401 0.499808C8.23912 0.499631 8.33596 0.528859 8.41835 0.583788C8.50074 0.638717 8.56496 0.716871 8.60288 0.808345C8.6408 0.899818 8.6507 1.00049 8.63134 1.0976C8.61197 1.19471 8.5642 1.28388 8.4941 1.35381L1.8471 7.99981L8.4941 14.6458C8.58518 14.7401 8.63557 14.8664 8.63443 14.9975C8.63329 15.1286 8.58071 15.254 8.48801 15.3467C8.3953 15.4394 8.2699 15.492 8.1388 15.4931C8.0077 15.4943 7.8814 15.4439 7.7871 15.3528L0.787098 8.35281C0.693362 8.25904 0.640704 8.13189 0.640704 7.99931C0.640704 7.86673 0.693362 7.73957 0.787098 7.64581L7.7871 0.645808C7.8808 0.552339 8.00775 0.499836 8.1401 0.499808Z" fill="white"/>
</svg>
