<svg width="16" height="16" viewBox="0 0 16 16" fill="none" xmlns="http://www.w3.org/2000/svg">
<path d="M15.1401 8.5H1.14014C1.00753 8.5 0.880352 8.44732 0.786583 8.35355C0.692815 8.25979 0.640137 8.13261 0.640137 8C0.640137 7.86739 0.692815 7.74021 0.786583 7.64645C0.880352 7.55268 1.00753 7.5 1.14014 7.5H15.1401C15.2727 7.5 15.3999 7.55268 15.4937 7.64645C15.5875 7.74021 15.6401 7.86739 15.6401 8C15.6401 8.13261 15.5875 8.25979 15.4937 8.35355C15.3999 8.44732 15.2727 8.5 15.1401 8.5Z" fill="white"/>
<path d="M8.14018 15.5002C8.04116 15.5004 7.94431 15.4711 7.86192 15.4162C7.77953 15.3613 7.71531 15.2831 7.67739 15.1917C7.63948 15.1002 7.62957 14.9995 7.64894 14.9024C7.66831 14.8053 7.71607 14.7161 7.78618 14.6462L14.4332 8.00019L7.78618 1.35419C7.6951 1.25989 7.6447 1.13359 7.64584 1.00249C7.64698 0.871393 7.69956 0.745987 7.79227 0.653283C7.88497 0.560579 8.01038 0.507994 8.14148 0.506855C8.27257 0.505716 8.39888 0.556113 8.49318 0.647192L15.4932 7.64719C15.5869 7.74096 15.6396 7.86811 15.6396 8.00069C15.6396 8.13327 15.5869 8.26043 15.4932 8.35419L8.49318 15.3542C8.39947 15.4477 8.27253 15.5002 8.14018 15.5002Z" fill="white"/>
</svg>
